<svg width="48" height="48" viewBox="0 0 48 48" xmlns="http://www.w3.org/2000/svg" xmlns:xlink="http://www.w3.org/1999/xlink"><title>fb-flag</title><defs><path id="a" d="M0 .052h23.884v29.72H0z"/></defs><g fill="none" fill-rule="evenodd"><circle fill="#C4CCE2" cx="24" cy="24" r="24"/><g transform="translate(10 10.1)"><mask id="b" fill="#fff"><use xlink:href="#a"/></mask><path d="M19.986 13.907l.152-.058 1.003-7.79c-.237.168-.395.22-.427.313-.087.26-.14.535-.174.808-.212 1.69-.417 3.382-.621 5.074-.055.447-.112.895-.134 1.344-.005.1.13.206.2.31m1.542-11.595c.081-.521.17-.963.214-1.41.039-.408.268-.699.614-.78.461-.11.965-.13 1.368.223.083.073.14.22.143.333.013.43.039.865-.011 1.29-.183 1.541-3.293 25.914-3.482 26.973-.13.732-1.327 1.104-1.873.595a.86.86 0 0 1-.234-.596c.027-.676.891-7.028.993-7.973.1-.923.133-1.853.212-2.779.039-.448-.22-.643-.582-.763a2.831 2.831 0 0 0-.514-.114c-1.884-.256-3.761-.4-5.508.582-.434.244-.895.516-1.206.89-.874 1.048-2.07 1.371-3.31 1.65-2.118.476-4.267.274-6.405.29-.617.006-1.236-.136-1.946-.222.398-.798 2.709-5.146 3.504-6.55.43-.757.43-1.56.223-2.346C3.283 9.93 2.183 6.082 2.109 5.7h.828c1.77 0 3.543.035 5.313-.01 1.558-.04 3.034-.437 4.334-1.342.308-.214.596-.47.854-.743 1.12-1.186 2.477-1.742 4.114-1.717 1.189.018 2.35.16 3.505.42.139.032.29.005.47.005" fill="#FEFEFE" mask="url(#b)"/></g><path d="M29.986 24.007c-.071-.103-.206-.21-.201-.31.022-.449.08-.896.134-1.344.204-1.691.409-3.383.621-5.073.034-.273.087-.548.174-.808.032-.094.19-.145.427-.313l-1.003 7.79-.152.058" fill="#D2D3D5"/></g></svg>